<svg width="48" height="48" viewBox="0 0 48 48" fill="none" xmlns="http://www.w3.org/2000/svg">
<path fill-rule="evenodd" clip-rule="evenodd" d="M13.0463 27.177L18.7633 33.609C19.2933 34.205 18.9463 35.151 18.1573 35.263L13.4103 35.941C13.1473 35.979 12.8813 35.91 12.6693 35.751L9.62927 33.471C9.26027 33.194 9.12827 32.701 9.31027 32.277L11.3803 27.447C11.6683 26.774 12.5593 26.629 13.0463 27.177ZM32.4913 10.245L35.3393 11.669C35.7323 11.865 35.9503 12.295 35.8783 12.728L35.2463 16.522C35.1293 17.225 34.3343 17.583 33.7303 17.206L28.3853 13.865C27.7523 13.469 27.7603 12.544 28.4013 12.16L31.5303 10.283C31.8223 10.107 32.1853 10.093 32.4913 10.245ZM11.6253 10C12.0003 10 12.3013 10.016 12.7503 10.375C13.3153 10.827 34.3273 25.694 38.3413 28.534C38.7273 28.807 38.8663 29.304 38.6793 29.738C38.0763 31.139 36.8023 34.121 36.2563 35.398C36.1003 35.766 35.7403 36 35.3403 36H32.4393C32.1593 36 31.8923 35.883 31.7033 35.677L9.93827 12.02C9.46827 11.51 9.64727 10.686 10.2883 10.42C10.8193 10.199 11.3703 10 11.6253 10ZM15.2433 5.277C15.0583 5.097 14.8143 5 14.5553 5H6.00027C5.47227 5.264 5.00027 5.57 5.00027 6.625V13.5V15.764C5.00027 15.919 5.03627 16.072 5.10627 16.211L5.77727 17.553C5.91827 17.835 5.91827 18.166 5.77727 18.447L5.00027 20V21L6.00027 22V23L5.29327 23.707C5.10527 23.895 5.00027 24.149 5.00027 24.414V27.586C5.00027 27.851 5.10527 28.106 5.29327 28.293L5.70727 28.707C5.89527 28.895 6.00027 29.149 6.00027 29.414V32.506C6.00027 32.802 5.86527 33.088 5.63627 33.275C4.96727 33.822 5.00027 34.122 5.00027 35V39.235C5.00027 39.681 5.30227 40.072 5.73027 40.197C7.37227 40.675 7.63827 41 10.0003 41C12.3633 41 14.0003 41 14.0003 41C14.6143 41 15.2283 40.496 15.6103 40.205C15.8743 40.004 16.2343 39.928 16.5323 40.074C17.0053 40.307 17.6163 41 18.4143 41C19.0563 41 20.0783 40 20.6263 40C20.9743 40 21.8553 40.712 21.8553 40.712C21.9513 40.76 22.0393 40.823 22.1153 40.899L22.7073 41.707C22.8953 41.895 23.1493 42 23.4143 42H24.6073C24.8393 42 25.0653 41.924 25.2413 41.773C25.5793 41.482 26.2403 41.014 27.0003 41H31.7373C31.8973 41 32.0523 40.964 32.1943 40.889C32.4693 40.745 32.9823 40.297 33.3913 40.098C33.7833 39.907 34.2533 39.993 34.5523 40.308C34.6083 40.367 34.6633 40.427 34.7143 40.482C34.9033 40.689 35.1693 41 35.4483 41H37.5863C37.8513 41 38.1063 40.895 38.2933 40.707L38.5723 40.295C38.8363 40.031 39.2213 39.934 39.5783 40.048C39.9033 40.151 40.9313 40.78 41.7763 40.975C42.4023 41.119 43.0003 40.643 43.0003 40V27C43.0003 26.448 42.5523 26 42.0003 26H41.0003L41.7073 25.293C41.8953 25.105 42.0003 24.851 42.0003 24.586V21.236C42.0003 21.081 41.9643 20.928 41.8943 20.789L41.3223 19.645C41.1303 19.26 41.2053 18.795 41.5093 18.491L42.0003 18V17L42.7073 16.293C42.8953 16.105 43.0003 15.851 43.0003 15.586V12.123C43.0003 12.041 42.9903 11.96 42.9703 11.88L42.1373 8.549C42.0523 8.209 42.1523 7.848 42.4003 7.6L43.0003 7V6L42.2343 5.234C42.0823 5.082 41.8853 4.983 41.6723 4.952L38.5143 4.489L37.7223 5.056L37.2983 4.436C37.1113 4.163 36.8033 4 36.4723 4H31.0003C30.3833 4 30.0013 4.397 30.0013 4.993C30.0013 5.138 30.0003 6 29.0003 6C28.0003 6 28.0003 5 28.0003 5C28.0003 5 28.0003 4 26.8513 4H20.5513C20.2153 4 19.9023 4.166 19.7183 4.447C19.3323 5.036 18.6443 6 18.2783 6C17.7503 6 17.6203 6 17.0003 6C16.1383 6 15.5483 5.573 15.2433 5.277Z" fill="url(#paint0_linear_2689_818)"/>
<defs>
<linearGradient id="paint0_linear_2689_818" x1="19.6293" y1="2.103" x2="28.5113" y2="43.89" gradientUnits="userSpaceOnUse">
<stop stop-color="#F45560"/>
<stop offset="1" stop-color="#CF1928"/>
</linearGradient>
</defs>
</svg>
