<svg width="48" height="48" viewBox="0 0 48 48" fill="none" xmlns="http://www.w3.org/2000/svg">
<path d="M15.5249 12.883C17.8799 11.083 20.8129 10 23.9999 10C27.0459 10 29.8589 10.989 32.1589 12.646L35.9999 8.038C32.6519 5.515 28.5049 4 23.9999 4C19.2929 4 14.9679 5.645 11.5479 8.376L15.5249 12.883Z" fill="#F97F00"/>
<path d="M37.536 8.31897L33.697 12.925C36.344 15.474 38 19.044 38 23C38 30.72 31.72 37 24 37C16.28 37 10 30.72 10 23C10 19.186 11.537 15.727 14.019 13.2L10.047 8.69797C6.323 12.333 4 17.397 4 23C4 34.028 12.972 43 24 43C35.028 43 44 34.028 44 23C44 17.195 41.499 11.976 37.536 8.31897Z" fill="#FEFBFC"/>
<path d="M33 35L25 27V14L28 22L37 31L33 35ZM15 35L23 27V14L20 22L11 31L15 35Z" fill="#FEFBFC"/>
</svg>
