<svg width="31" height="31" viewBox="0 0 31 31" fill="none" xmlns="http://www.w3.org/2000/svg">
<path d="M3.229 7.02985V14.6255C3.229 15.1925 3.41565 15.7441 3.76052 16.1949L11.2373 25.9721C11.4815 26.2918 11.8606 26.4791 12.2629 26.4791H18.6896C19.2289 26.4791 19.5305 25.8572 19.1966 25.4335L4.38182 6.63008C4.00271 6.14893 3.229 6.41695 3.229 7.02985Z" fill="#FF5252"/>
<path d="M17.5959 18.3345L26.6143 6.66433C26.9909 6.17608 27.771 6.44281 27.771 7.05893V15.1092C27.771 15.3643 27.6955 15.6136 27.554 15.8255L25.5713 18.8002C25.3317 19.1593 24.9281 19.375 24.4966 19.375H18.1074C17.5707 19.375 17.2678 18.7588 17.5959 18.3345Z" fill="#FF5252"/>
</svg>
