<svg width="27" height="28" viewBox="0 0 27 28" fill="none" xmlns="http://www.w3.org/2000/svg">
<path d="M26.9271 13.005C27.1431 16.2358 26.3013 19.4465 24.5452 22.0899C22.7891 24.7334 20.2272 26.6461 17.2962 27.5022C14.3652 28.3582 11.2464 28.1047 8.47115 26.7847C5.69589 25.4647 3.43593 23.16 2.07633 20.2632C0.716728 17.3665 0.341612 14.0569 1.0149 10.8984C1.68818 7.73991 3.36821 4.92795 5.76872 2.94162C8.16923 0.955303 11.1417 -0.082473 14.1797 0.00512042C17.2176 0.0927138 20.1331 1.30026 22.4293 3.422L18.9874 7.6532C17.6096 6.38015 15.8603 5.65563 14.0376 5.60307C12.2148 5.55052 10.4313 6.17318 8.991 7.36497C7.55069 8.55677 6.54268 10.2439 6.13871 12.139C5.73474 14.0341 5.9598 16.0199 6.77557 17.7579C7.59133 19.496 8.9473 20.8788 10.6125 21.6708C12.2776 22.4628 14.1489 22.6149 15.9075 22.1013C17.6661 21.5877 19.2032 20.44 20.2569 18.854C21.3106 17.2679 21.8156 15.3415 21.6861 13.403L26.9271 13.005Z" fill="#FC002A"/>
<path d="M26.9271 13.005C27.0703 15.147 26.7493 17.2954 25.9888 19.284C25.2283 21.2726 24.0488 23.0481 22.5415 24.4732C21.0342 25.8982 19.2395 26.9346 17.2962 27.5022C15.353 28.0697 13.3133 28.1533 11.3349 27.7463C9.35655 27.3393 7.49253 26.4527 5.88707 25.1552C4.28161 23.8576 2.97774 22.1838 2.07633 20.2632C1.17492 18.3427 0.700129 16.2269 0.688688 14.0795C0.677248 11.9321 1.12946 9.81068 2.01035 7.87935L6.73598 10.3276C6.20745 11.4864 5.93612 12.7593 5.94298 14.0477C5.94984 15.3361 6.23472 16.6056 6.77557 17.7579C7.31641 18.9103 8.09873 19.9146 9.06201 20.6931C10.0253 21.4716 11.1437 22.0036 12.3307 22.2478C13.5177 22.492 14.7416 22.4418 15.9075 22.1013C17.0735 21.7608 18.1503 21.1389 19.0547 20.2839C19.959 19.4289 20.6668 18.3636 21.123 17.1704C21.5793 15.9773 21.772 14.6882 21.6861 13.403L26.9271 13.005Z" fill="#FFC300"/>
<path d="M26.9271 13.005C27.1536 16.393 26.2168 19.7531 24.2911 22.4595C22.3654 25.1658 19.5823 27.0337 16.4602 27.7153C13.3382 28.3968 10.0901 27.8454 7.32115 26.1639C4.55222 24.4824 2.45129 21.7854 1.40978 18.5754L6.37563 16.7452C7.00054 18.6712 8.2611 20.2894 9.92246 21.2983C11.5838 22.3073 13.5327 22.6381 15.4059 22.2292C17.2792 21.8202 18.949 20.6995 20.1044 19.0757C21.2598 17.4519 21.8219 15.4358 21.6861 13.403L26.9271 13.005Z" fill="#00BA57"/>
<path d="M26.9271 13.005C27.091 15.4563 26.6466 17.9104 25.6385 20.1206C24.6304 22.3309 23.0942 24.2193 21.1843 25.5962L18.2403 20.9577C19.3863 20.1316 20.308 18.9985 20.9129 17.6724C21.5177 16.3463 21.7844 14.8738 21.6861 13.403L26.9271 13.005Z" fill="#525EF4"/>
<path d="M14.7627 13H26.9237L26.0221 18H14.7627V13Z" fill="#525EF4"/>
</svg>
